# xmcd CD database file
#
# Track frame offsets:
#	150
#	17532
#	37460
#
# Disc length: 730 seconds
#
# Revision: 0
# Processed by: cddbd v1.5.1PL0 Copyright (c) Steve Scherf et al.
# Submitted via: CDex 1.51
#
DISCID=2002d803
DTITLE=T.M.Revolution - 独裁-monopolize-
DYEAR=1996
DGENRE=JPop
TTITLE0=独裁-monopolize-
TTITLE1=LIAR'S SMILE
TTITLE2=独裁-monopolize-(Original Backing Track)
EXTD=YEAR: 1996
EXTT0=
EXTT1=
EXTT2=
PLAYORDER=
